# xmcd CD database file
#
# Track frame offsets:
#	150
#	20116
#	30984
#	46683
#	64419
#	79913
#	95334
#	110424
#	125859
#	141333
#	154514
#	175344
#	194319
#	208583
#	222294
#
# Disc length: 3214 seconds
#
# Revision: 1
# Processed by: cddbd v1.5.2PL0 Copyright (c) Steve Scherf et al.
# Submitted via: CDex 1.51
#
DISCID=d60c8c0f
DTITLE=Various Artist - Line Dance Party
DYEAR=1995
DGENRE=Country
TTITLE0=Scoots Boots
TTITLE1=Chatta Hoochie
TTITLE2=Dancin' Up and Down The Lane
TTITLE3=Line Dance Heaven
TTITLE4=Waiting For The Weekend
TTITLE5=A Natural Thing
TTITLE6=My Kind Of Woman
TTITLE7=I Surrender To You
TTITLE8=Bop
TTITLE9=Memphis Breakdown
TTITLE10=She
TTITLE11=All Woman To Me
TTITLE12=Keep On Dancin'
TTITLE13=On A Love Trail
TTITLE14=Love Your Heart - Doyle - Eshman
EXTD=YEAR: 1995
EXTT0=
EXTT1=
EXTT2=
EXTT3=
EXTT4=
EXTT5=
EXTT6=
EXTT7=
EXTT8=
EXTT9=
EXTT10=
EXTT11=
EXTT12=
EXTT13=
EXTT14=
PLAYORDER=
